<?xml version="1.0" standalone="no"?>
<!DOCTYPE svg PUBLIC "-//W3C//DTD SVG 20010904//EN"
 "http://www.w3.org/TR/2001/REC-SVG-20010904/DTD/svg10.dtd">
<svg version="1.0" xmlns="http://www.w3.org/2000/svg"
 width="230.000000pt" height="230.000000pt" viewBox="0 0 230.000000 230.000000"
 preserveAspectRatio="xMidYMid meet">
<metadata>
Created by potrace 1.11, written by Peter Selinger 2001-2013
</metadata>
<g transform="translate(0.000000,230.000000) scale(0.100000,-0.100000)"
fill="#000000" stroke="none">
<path d="M665 2110 l-39 -40 39 -40 39 -40 41 40 40 40 -40 40 -41 40 -39 -40z"/>
<path d="M874 2084 c-20 -19 -24 -31 -19 -52 12 -52 68 -69 105 -32 28 28 25
64 -6 89 -35 27 -49 26 -80 -5z"/>
<path d="M1265 1960 c-18 -20 -18 -21 1 -41 l20 -20 19 21 c18 20 18 21 -1 41
l-20 20 -19 -21z"/>
<path d="M1562 1917 l-32 -33 33 -32 33 -32 34 35 34 35 -29 30 c-16 16 -32
30 -35 30 -3 0 -20 -15 -38 -33z"/>
<path d="M1371 1836 c-57 -57 -69 -65 -110 -68 -41 -4 -50 -1 -81 29 l-36 33
-34 -35 -34 -35 -26 25 -27 25 -18 -20 c-19 -21 -19 -21 -82 42 l-63 62 -60
-59 -60 -59 35 -36 c38 -39 43 -50 20 -50 -8 0 -24 -9 -35 -20 -19 -19 -22
-19 -43 -5 -32 23 -81 19 -114 -9 -22 -19 -28 -32 -28 -64 0 -32 -2 -38 -12
-30 -10 8 -30 -5 -80 -50 -38 -33 -81 -74 -97 -91 l-30 -31 27 -28 28 -29 -47
0 c-42 0 -51 -4 -82 -37 -31 -35 -34 -42 -29 -85 4 -37 12 -52 41 -77 l36 -31
-23 -12 c-55 -29 -72 -102 -37 -159 23 -37 61 -55 108 -50 17 2 32 2 32 -1 0
-3 -12 -18 -27 -33 l-27 -28 54 -55 c30 -30 59 -55 65 -55 6 0 29 18 50 40 21
22 44 40 49 40 14 0 66 -51 66 -64 0 -6 -8 -16 -19 -23 -27 -17 -39 -62 -29
-101 7 -25 18 -37 45 -48 19 -9 42 -13 50 -9 11 4 14 0 10 -14 -3 -13 5 -29
24 -47 l29 -28 29 28 c20 19 27 34 23 48 -4 15 -2 19 7 14 7 -5 26 -2 42 4 23
10 33 10 42 1 6 -6 20 -11 31 -11 12 0 27 -4 35 -9 12 -8 13 -12 1 -26 -12
-14 -10 -20 13 -43 l26 -26 26 24 25 24 -37 38 c-20 21 -44 38 -53 38 -8 0
-21 9 -28 20 -7 11 -18 17 -27 14 -9 -4 -15 0 -15 9 0 26 -40 67 -65 67 -17 0
-23 4 -19 14 3 7 -6 23 -20 34 -14 11 -26 24 -26 28 0 5 -25 33 -55 63 -53 54
-55 54 -74 37 -17 -16 -23 -17 -36 -6 -14 12 -13 15 5 32 26 24 23 50 -8 63
-13 6 -22 19 -22 32 0 22 -24 53 -41 53 -6 0 -19 -5 -29 -10 -16 -9 -21 -6
-26 15 -3 14 -22 38 -41 54 l-34 28 25 17 c34 22 59 72 54 108 -4 25 4 38 59
90 l63 62 -27 28 -27 28 33 34 c29 30 39 34 78 33 38 -2 49 2 69 26 13 15 24
34 24 41 0 9 14 13 45 12 40 -1 45 -4 50 -28 8 -33 23 -46 62 -54 38 -8 84 29
86 69 2 30 7 33 25 15 9 -9 8 -16 -5 -30 -16 -18 -13 -23 60 -96 l77 -77 75
75 c71 70 75 73 93 57 41 -37 112 -10 112 42 0 18 4 22 18 15 22 -9 52 -9 75
0 13 6 17 3 17 -12 0 -24 54 -72 81 -72 11 0 28 4 38 10 14 7 25 2 51 -25 l34
-35 -27 -28 -27 -28 63 -62 c35 -34 66 -60 69 -56 4 3 7 -12 6 -33 0 -22 5
-49 10 -60 9 -17 7 -24 -13 -43 -14 -13 -23 -26 -20 -28 3 -3 -5 -12 -16 -20
-14 -10 -19 -22 -16 -38 3 -16 0 -24 -9 -24 -18 0 -37 -38 -31 -60 3 -14 -1
-20 -17 -22 -31 -4 -36 -57 -6 -65 23 -6 22 -21 -3 -37 -12 -8 -21 -5 -37 9
-22 20 -22 20 -60 -21 -21 -23 -45 -44 -54 -47 -9 -4 -19 -15 -23 -24 -4 -10
-15 -24 -25 -31 -11 -8 -18 -21 -16 -30 2 -11 -7 -20 -27 -27 -21 -7 -33 -19
-40 -42 -7 -25 -15 -33 -32 -33 -13 0 -26 -7 -29 -15 -4 -8 -14 -15 -23 -15
-9 0 -34 -17 -54 -38 l-37 -38 25 -24 26 -24 26 26 c23 23 25 29 13 43 -12 14
-11 18 1 26 8 5 25 9 40 9 14 0 30 5 37 12 9 9 18 9 37 0 52 -24 97 21 81 82
-5 20 2 31 34 59 22 19 40 39 40 45 0 15 22 16 36 2 7 -7 20 0 39 20 16 16 34
30 41 30 27 0 25 -23 -5 -54 l-31 -32 35 -34 35 -34 95 94 95 94 -27 28 -27
28 43 0 c36 0 49 6 77 34 28 28 34 42 34 76 0 51 -13 76 -52 99 l-30 19 30 18
c36 21 52 52 52 103 0 68 -69 121 -136 105 l-29 -7 27 30 28 29 -98 97 c-92
92 -98 96 -115 80 -16 -16 -17 -16 -17 14 0 46 -9 62 -42 79 -34 18 -89 12
-108 -11 -11 -13 -15 -11 -32 10 -11 14 -28 25 -39 25 -24 0 -24 12 -1 33 24
22 32 21 32 -3 0 -28 36 -45 66 -31 35 16 34 67 -2 83 -14 7 -53 41 -87 75
l-62 64 -64 -65z m-181 -146 c0 -33 -11 -38 -30 -15 -10 12 -10 18 0 30 19 23
30 18 30 -15z m209 -4 c22 -22 31 -40 27 -51 -4 -12 -10 -14 -25 -5 -11 5 -29
10 -41 10 -16 0 -20 4 -16 16 3 9 6 27 6 40 0 32 10 30 49 -10z m-469 -11 c16
-19 14 -21 -34 -28 l-39 -6 23 24 c27 29 33 30 50 10z m366 -89 c-3 -11 -6
-25 -6 -30 0 -11 -39 23 -50 44 -7 13 -3 15 27 12 30 -4 34 -7 29 -26z m-756
-672 c0 -14 -3 -14 -15 -4 -8 7 -15 14 -15 16 0 2 7 4 15 4 8 0 15 -7 15 -16z
m1248 4 c-6 -18 -28 -21 -28 -4 0 9 7 16 16 16 9 0 14 -5 12 -12z m-1088 -183
c0 -8 -9 -15 -20 -15 -20 0 -26 11 -13 23 12 13 33 7 33 -8z"/>
<path d="M1757 1842 l-27 -28 30 -29 30 -29 30 29 30 29 -27 28 c-15 15 -30
28 -33 28 -3 0 -18 -13 -33 -28z"/>
<path d="M595 1810 c-23 -25 -13 -67 20 -82 52 -23 100 46 59 86 -21 22 -57
20 -79 -4z"/>
<path d="M1974 805 c-4 -9 -2 -21 4 -27 15 -15 44 -1 40 19 -4 23 -36 29 -44
8z"/>
<path d="M255 706 c-30 -45 16 -91 61 -61 28 18 31 46 8 69 -22 23 -51 20 -69
-8z"/>
<path d="M495 490 c-18 -20 -18 -21 1 -41 20 -20 20 -20 39 1 18 20 18 21 -1
41 l-20 20 -19 -21z"/>
<path d="M1082 397 l-62 -63 63 -62 63 -62 61 62 61 63 -56 63 c-31 34 -59 62
-62 62 -3 0 -34 -28 -68 -63z"/>
<path d="M445 370 l-29 -30 35 -35 35 -35 34 35 34 35 -29 30 c-36 37 -44 37
-80 0z"/>
<path d="M832 280 c-44 -41 -16 -112 45 -112 31 0 63 33 63 67 0 26 -42 65
-69 65 -10 0 -27 -9 -39 -20z"/>
<path d="M1375 255 c-29 -28 -32 -55 -7 -83 27 -31 55 -35 85 -11 34 26 36 70
5 99 -29 27 -54 25 -83 -5z"/>
<path d="M1592 177 l-32 -33 35 -34 35 -34 32 32 33 32 -36 35 -35 35 -32 -33z"/>
</g>
</svg>
